<svg xmlns="http://www.w3.org/2000/svg" height="24" width="24" viewBox="0 0 24 24" class="card-type-imagestyles__Image-xzyzdp-0 EzAkp card-type-selectorstyles__CardTypeImageStyled-hf9r3e-2 dDHzPQ"><path d="M17.59 7.154L20.186 2s.875 1.303 1.24 3.37l.04.242-1.28 1.74H21.6c0 .35-.038.702-.085 1.053l-.05.35-1.954 2.61h1.28a18.205 18.205 0 01-2.425 4.147l.066-.089-.004.265c-.182 4.989-4.726 6.262-4.908 6.31l-.005.002.606-3.946h1.348v-3.345l1.347-1.338V9.358l-3.705 2.675v3.479h-2.022v-3.479L7.384 9.358v4.013L8.73 14.71v3.345h1.415L10.82 22s-4.857-1.222-5.048-6.312l-.004-.196-.001.02c-1.05-1.288-1.817-2.576-2.3-3.812l-.126-.335H4.69l-2.022-2.61C2.6 8.222 2.6 7.82 2.6 7.352h1.482L2.735 5.612C3.072 3.405 4.015 2 4.015 2l2.594 5.154a6.33 6.33 0 015.258-3.143l.233-.004.233.004a6.33 6.33 0 015.258 3.143L20.185 2z" fill="#a5a0bb" fill-rule="nonzero"/></svg>