<svg width="21" height="21" viewBox="0 0 21 21" fill="none" xmlns="http://www.w3.org/2000/svg">
<circle cx="10.1544" cy="10.4361" r="5.5" fill="#A5A0BB"/>
<path fill-rule="evenodd" clip-rule="evenodd" d="M4.22349 18.4884C5.8828 19.7126 7.93405 20.4361 10.1543 20.4361C15.6771 20.4361 20.1543 15.959 20.1543 10.4361C20.1543 8.21588 19.4307 6.16463 18.2065 4.50532L17.1316 5.58024C18.0914 6.9568 18.6543 8.63073 18.6543 10.4361C18.6543 15.1305 14.8487 18.9361 10.1543 18.9361C8.3489 18.9361 6.67497 18.3733 5.29841 17.4135L4.22349 18.4884ZM15.0103 3.4589C13.6337 2.49903 11.9598 1.93613 10.1543 1.93613C5.45988 1.93613 1.6543 5.74171 1.6543 10.4361C1.6543 12.2416 2.2172 13.9156 3.17707 15.2922L2.10215 16.3671C0.877903 14.7077 0.154297 12.6564 0.154297 10.4361C0.154297 4.91328 4.63145 0.436127 10.1543 0.436127C12.3746 0.436127 14.4259 1.15973 16.0852 2.38398L15.0103 3.4589Z" fill="#A5A0BB"/>
</svg>
