<svg xmlns="http://www.w3.org/2000/svg" height="24" width="24" viewBox="0 0 24 24" class="card-type-imagestyles__Image-xzyzdp-0 EzAkp card-type-selectorstyles__CardTypeImageStyled-hf9r3e-2 dDHzPQ"><path d="M4.52 15.714s-.637-4.072 5.171-9.071c.284.357.638.714.992.928.991-.571 1.629-1.643 1.629-2.785 0-1.215-.638-2.215-1.63-2.786 2.126 0 5.596 3.143 5.596 8.142v.643c-.495-.357-1.204-.571-1.841-.571-1.558 0-2.975.857-3.683 2.143.779 1.285 2.125 2.142 3.683 2.142 1.558 0 3.116-1.071 3.754-2.5a5.85 5.85 0 011.204 2.5s.992 4.429-3.117 6.5c-4.108 2.071-8.074.286-8.074.286s3.895.071 4.958-3c0-.072-4.746.643-8.641-2.571z" fill="#a5a0bb" fill-rule="nonzero"/></svg>