<svg xmlns="http://www.w3.org/2000/svg" viewBox="0 0 35 35" xml:space="preserve" class="keywordstyles__KeywordIcon-sc-1lpafv9-2 goSaP"><g fill="#6bcde9"><path d="M33.4 16.8c0-.5-.4-.6-.8-.7-.1 0-.2-.1-.4-.1-.1 0-.3-.1-.4-.1-.3-.1-.6-.1-.9-.2-.2 0-.4-.1-.5-.1-.6-.1-1.1-.3-1.7-.4l-.9-.3c-2.2-.9-3.5-2.7-3.9-5.5-.3-2.1-.8-4.1-1.2-6.2-.1-.5-.1-1.2-.8-1.2-.7 0-.7.7-.8 1.2-.4 2.1-.9 4.1-1.2 6.2-.5 2.8-1.8 4.6-3.9 5.6l-.9.3c-.6.1-1.1.3-1.7.4-.2 0-.4.1-.5.1-.3.1-.6.1-.9.2-.1 0-.3.1-.4.1-.1 0-.2.1-.4.1-.4.1-.8.2-.8.7v.2c.1.3.5.4.8.5 1.4.2 2.7.5 4.1.9 2.1.6 3.4 1.9 4 4 .6 2.1 1 4.3 1.4 6.5.1.5.2 1.1.3 1.6.1.4.2.9.7.9.5 0 .6-.5.7-.9.2-.5.2-1.1.3-1.6.4-2.2.8-4.4 1.4-6.5.6-2.1 1.9-3.4 4-4 1.4-.4 2.7-.7 4.1-.9.4-.1.7-.2.8-.5V17c.4 0 .4-.1.4-.2 0 .1 0 .1 0 0 0 .1 0 .1 0 0z"/><path d="M17.8 25.7c-.5-.1-.9-.2-1.4-.3-1.1-.2-1.8-.9-2-2-.2-1-.4-2.1-.6-3.1-.1-.5-.2-1-.8-1-.6 0-.7.5-.8 1-.2.9-.3 1.7-.5 2.6-.3 1.4-1.1 2.3-2.6 2.5l-1.2.3c-.3.1-.6.3-.6.7 0 .4.3.5.6.6.3.1.6.2.9.2 1.8.1 2.6 1.2 2.8 2.9.1.9.3 1.7.5 2.5.1.4.2.8.8.8.5-.1.6-.4.7-.8.2-1.1.5-2.2.7-3.2.2-1.1.9-1.8 2-2 .5-.1 1-.2 1.4-.3.4-.1.7-.3.7-.7.1-.4-.3-.6-.6-.7z"/><path d="M7.9 18.5c.3 0 .4-.2.6-.4.2-.4.3-.7.4-1.1l.6-3c.2-.7.6-1.2 1.4-1.5.6-.2 1.2-.3 1.8-.4.4-.1.8-.3.8-.7.1-.5-.4-.6-.8-.7-.3-.1-.7-.2-1-.2-1.3-.2-2.1-1-2.4-2.3-.1-1-.3-2-.5-2.9-.1-.5-.2-1-.8-1-.7 0-.6.6-.7 1.1-.2 1-.4 2-.6 2.9-.3 1.1-.9 1.8-2.1 2-.5.1-1 .2-1.5.4-.3.1-.6.3-.6.7 0 .4.3.6.6.7.3.1.6.2.9.2 1.7.1 2.5 1.1 2.8 2.7l.6 3c0 .2.2.5.5.5z"/><path d="M27.9 24.3c-.9 0-1.6.7-1.7 1.6 0 .8.7 1.6 1.7 1.6.9 0 1.6-.7 1.7-1.5 0-.9-.8-1.7-1.7-1.7z"/><path d="M4 19.2c-.9 0-1.6.8-1.6 1.7 0 .9.8 1.6 1.8 1.6.9 0 1.5-.7 1.5-1.6-.1-1-.8-1.7-1.7-1.7z"/><path d="M15 4.4c.9 0 1.6-.7 1.6-1.6 0-.9-.8-1.7-1.7-1.7-.9 0-1.6.7-1.6 1.7 0 .9.8 1.6 1.7 1.6z"/></g></svg>