<svg xmlns="http://www.w3.org/2000/svg" viewBox="0 0 32 32" width="32px" height="32px">
    <defs>
        <linearGradient id="lor-trap-fill" x1="0%" y1="0%" x2="0%" y2="100%">
            <stop offset="25%" stop-color="#e369e9"/>
            <stop offset="75%" stop-color="#7815ba"/>
        </linearGradient>
    </defs>
    <g fill="url(#lor-trap-fill)">
        <g>
            <rect height="6.29" width="6.29" class="st2" transform="matrix(0.313776, -0.288761, 0.313776, 0.288761, 37.1698, 22.3155)" y="-30.017651" x="-43.687868"/>
            <path d="m6.264126,19.694714l-3.345791,-1.295597c-0.001134,0.009071 0.000385,0.012913 0.00342,0.020584c-0.029006,0.583363 -0.509203,1.052761 -1.116151,1.130032l-0.046236,0.050255c0.036885,0.344002 0.093485,0.690094 0.172454,1.033039l0.061428,0.035915c0.605048,-0.094017 1.215153,0.218777 1.432189,0.76754c0.217032,0.548756 -0.031858,1.149269 -0.56102,1.435158l-0.021967,0.063862c0.179041,0.309418 0.373249,0.609421 0.589441,0.893364l0.072035,0.014977c0.518922,-0.299843 1.21312,-0.228153 1.64432,0.205406c0.42968,0.429726 0.447326,1.071342 0.07745,1.521172l0.007603,0.066982c0.291616,0.223915 0.599532,0.429333 0.915394,0.619045l0.069759,-0.014675c0.356984,-0.458542 1.024179,-0.634216 1.598631,-0.387707c0.57445,0.246513 0.858602,0.83363 0.704853,1.376209l0.032621,0.058601c0.360957,0.100735 0.729868,0.185768 1.103698,0.247421l0.060651,-0.037701c0.136687,-0.5499 0.682117,-0.949883 1.316018,-0.923187c0.047766,0.001385 0.098573,0.010441 0.143692,0.017056l-1.306755,-3.304047c-2.569909,-0.695004 -3.375319,-2.337391 -3.607736,-3.593704z"/>
            <path d="m28.574795,21.641884c0.217037,-0.548756 0.827141,-0.861557 1.43219,-0.76754l0.061428,-0.035915c0.078968,-0.342945 0.139742,-0.687641 0.172453,-1.033039l-0.044708,-0.054085c-0.606955,-0.077278 -1.088673,-0.542835 -1.111988,-1.128643c-0.001141,-0.009068 0.00038,-0.012909 0.003418,-0.020576l-3.345789,1.295589c-0.232422,1.256317 -1.037823,2.898705 -3.619112,3.598591l-1.306755,3.304043c0.049288,-0.005219 0.095922,-0.015675 0.143692,-0.017059c0.633898,-0.026691 1.179327,0.373295 1.316017,0.923191l0.060644,0.037697c0.373835,-0.061653 0.742752,-0.146675 1.103703,-0.247417l0.032631,-0.058605c-0.152233,-0.546413 0.130398,-1.129692 0.704845,-1.376205c0.57445,-0.246513 1.245813,-0.069439 1.598635,0.387711l0.069752,0.014671c0.31587,-0.189716 0.623785,-0.395134 0.915394,-0.619041l0.00761,-0.066986c-0.369877,-0.449829 -0.352234,-1.091442 0.077442,-1.521168c0.429684,-0.429726 1.121229,-0.506645 1.640152,-0.206802l0.072041,-0.014988c0.212021,-0.285339 0.410395,-0.583935 0.589437,-0.89336l-0.021963,-0.063854c-0.519306,-0.286938 -0.768198,-0.887451 -0.551168,-1.436207z"/>
        </g>
        <g>
            <path d="m8.03282,15.360102l-1.107512,2.514002c3.537133,-1.985701 6.910343,-3.431643 10.604806,-3.014183c2.843292,0.32128 5.352999,1.696051 7.610453,3.583679l-1.393602,-3.126505l2.980145,-3.046774l-3.937872,-1.899872l0.150976,-4.093915l-4.34433,0.870975l-2.740421,-3.22794l-2.720558,3.236826l-4.354069,-0.847261l0.180563,4.08908l-3.924277,1.925034l2.9957,3.036854z"/>
        </g>
    </g>
</svg>
