<svg xmlns="http://www.w3.org/2000/svg" height="32" width="32" viewBox="0 0 32 32">
    <defs xmlns="http://www.w3.org/2000/svg">
        <linearGradient id="lor-ephemeral-fill" x1="0%" y1="0%" x2="0%" y2="100%">
            <stop offset="25%" stop-color="#ff7cff"/>
            <stop offset="75%" stop-color="#8612df"/>
        </linearGradient>
    </defs>
    <path d="M23.068 3.75l1.932 3.261-1.163-0c0.014 0.054 0.024 0.11 0.029 0.168 0.339 3.521-0.528 6.508-2.59 8.89l-0.102 0.117c0.682 0.652 1.211 1.347 1.682 2.279 0.898 1.779 1.27 4.025 1.011 6.852-0.005 0.059-0.016 0.117-0.030 0.173h1.163l-1.932 3.261h-14.136l-1.932-3.261h1.747c-0.014-0.056-0.025-0.113-0.030-0.173-0.26-2.827 0.113-5.073 1.011-6.852 0.471-0.932 1-1.627 1.682-2.279l-0.102-0.117c-2.062-2.382-2.929-5.369-2.59-8.89 0.006-0.058 0.015-0.114 0.030-0.168l-1.747 0 1.932-3.261h14.136zM21.724 7.011h-10.865c0.031 0.119 0.042 0.246 0.029 0.375-0.324 3.363 0.622 6.016 2.851 8.065l0.936 0.86-0.997 0.789c-0.928 0.735-1.507 1.362-2.002 2.341-0.706 1.398-1.011 3.238-0.787 5.676 0.002 0.021 0.003 0.042 0.004 0.063 1.181-1.788 2.883-2.681 5.106-2.681 2.348 0 4.114 0.996 5.3 2.989l0.425 0c-0.031-0.118-0.042-0.243-0.030-0.371 0.224-2.438-0.081-4.278-0.787-5.676-0.495-0.979-1.074-1.606-2.002-2.341l-0.997-0.789 0.936-0.86c2.228-2.049 3.174-4.702 2.851-8.065-0.012-0.13-0.002-0.256 0.029-0.375zM20.227 10.408c-0.273 2.174-2.864 4.348-3.955 4.348s-3.545-2.174-3.818-4.348h7.773z" fill="url(#lor-ephemeral-fill)"></path>
</svg>
