<svg xmlns="http://www.w3.org/2000/svg" height="35" width="35" viewBox="0 0 35 35" fill="#ca7328" class="keywordstyles__KeywordIcon-sc-1lpafv9-2 goSaP"><path d="M27.8 7.7c1.7 1.7 1.7 4.6 0 6.3-1.7 1.7-4.6 1.7-6.3 0"/><path d="M10.7 5.9c-2.2 2.2-2.2 5.6 0 7.8s5.6 2.2 7.8 0"/><path d="M14.6 9.8L8.8 4 11.1 9.3z"/><path d="M9.5 23.3L13.5 20.3 14.5 24.3 19.5 20.3 20.5 24.3 25.5 20.3 26.5 23.2 30.5 20.3 27.5 28.2 26.5 26.3 20.5 31 19.5 27.3 14.5 30.9 12.5 26.3 7.5 28.2 4.5 14.3z"/><path d="M24.4 11.1L30.2 5.3 27.9 10.6z"/></svg>