<svg xmlns="http://www.w3.org/2000/svg" height="32" width="32" viewBox="0 0 32 32">
    <defs>
        <linearGradient id="lor-imbue-fill" x1="0%" y1="0%" x2="0%" y2="100%">
            <stop offset="25%" stop-color="#9bf7fa"/>
            <stop offset="75%" stop-color="#20b0e5"/>
        </linearGradient>
    </defs>
    <path d="M6.027 20.952c0 0-0.849-5.429 6.895-12.095 0.379 0.476 0.851 0.952 1.323 1.237 1.321-0.761 2.172-2.191 2.172-3.713 0-1.62-0.851-2.953-2.173-3.715 2.835 0 7.461 4.191 7.461 10.856v0.857c-0.66-0.476-1.605-0.761-2.455-0.761-2.077 0-3.967 1.143-4.911 2.857 1.039 1.713 2.833 2.856 4.911 2.856s4.155-1.428 5.005-3.333c0.795 0.966 1.345 2.11 1.605 3.333 0 0 1.323 5.905-4.156 8.667-5.477 2.761-10.765 0.381-10.765 0.381s5.193 0.095 6.611-4c0-0.096-6.328 0.857-11.521-3.428h-0.001z" fill="url(#lor-imbue-fill)"></path>
</svg>
