<svg xmlns="http://www.w3.org/2000/svg" height="35" width="35" viewBox="0 0 35 35" fill="#c54327" class="keywordstyles__KeywordIcon-sc-1lpafv9-2 goSaP"><g><path d="M29.7 11.3c-5.1-5.1-13.3-5.1-18.4 0-5.1 5.1-5.1 13.3 0 18.4 5.1 5.1 13.3 5.1 18.4 0s5.1-13.3 0-18.4zm-2.1 16.3c-3.9 3.9-10.2 3.9-14.1 0-3.9-3.9-3.9-10.2 0-14.1 3.9-3.9 10.2-3.9 14.1 0 3.9 3.8 3.9 10.2 0 14.1z"/><path d="M33.4 21.5c-1.4-2.4-4-4-6.9-4-2 0-3.9.8-5.3 2l-.3.3-.1.1c-1.4 1.4-3.4 2.3-5.6 2.3-2.4 0-4.5-1-5.9-2.6l-1.5 3.7c.5 2.4 1.7 4.6 3.5 6.5 5.1 5.1 13.3 5.1 18.4 0 2.3-2.4 3.5-5.3 3.7-8.3z"/><path d="M1.5 9.5c1.7-3.5 4.5-6.3 8-8l1.6 2.7-9.6 5.3z"/><path d="M14.5 4.5C14 6.9 12.8 9.1 11 11c-1.8 1.8-4.1 3-6.5 3.5l3.3 3 9.7-9.7-3-3.3z"/><path d="M11.1 4.2L9.5 1.5l-8 8 2.7 1.6c1.6-.4 3.1-1.3 4.4-2.6 1.2-1.2 2-2.7 2.5-4.3z"/></g></svg>