<svg xmlns="http://www.w3.org/2000/svg" viewBox="0 0 35 35" xml:space="preserve" class="keywordstyles__KeywordIcon-sc-1lpafv9-2 goSaP"><g fill="#8d54a2"><path d="M33.6 15.7C32.6 9.3 27.7 4 21.4 2.5c-.8-.2-1.5-.4-1.5-.4L17.4.6S15.2 2 15.2 2.1V15c0 .3 0 .7-.1.8-.6.6-1.2 1.7-1.2 2.6 0 1.9 1.5 3.4 3.4 3.4 1.7 1.5 3.4 3 5 4.6.9.9 1 1.1 1 1.1l2.7-.6s.5-2.3.7-2.9c3.7-7.2.8-14-5.9-16.3-.4-.1-.8-.3-1.1-.4V4.6c.7.2 1.3.3 1.9.5 5.5 1.8 9.6 7.5 9.7 13 .1 4.8-1.9 8.6-5.5 11.5-3.6 2.9-7.8 3.4-12.1 2.2-7.3-2-11.6-9.4-9.9-16.7.8-3.6 2.9-6.4 5.9-8.5.3-.2.7-.5.7-.5V3.4c-.2.3-.5.5-.7.6-9 5-11.3 16.8-4.5 25 2.2 2.6 4.9 4.2 8.2 4.9 3.6.8 7 .7 10.5-.7 6.8-2.9 10.8-10.2 9.7-17.5zm-13.7-5.1c2.4.7 4.2 2.4 4.9 4.7.7 2.1.5 4.2-.5 6.5-1.2-1.3-2.2-2.3-3.1-3.3V18c0-1.2-.6-1.8-1.4-2.5 0-.1.1-4.9.1-4.9z"/><path d="M15.4 25.8c-3.4 0-6.3-3.3-6.3-7.2 0-1.9.7-3.6 1.7-4.8V9.3C6.6 11.9 5 18.5 7.5 23.1c2.5 4.6 7.6 6.6 10.4 6.2l-2.5-3.5z"/></g></svg>