<svg xmlns="http://www.w3.org/2000/svg" height="32" width="32" viewBox="0 0 32 32">
    <defs xmlns="http://www.w3.org/2000/svg">
        <linearGradient id="lor-elusive-fill" x1="0%" y1="0%" x2="0%" y2="100%">
            <stop offset="25%" stop-color="#d39613"/>
            <stop offset="75%" stop-color="#be520a"/>
        </linearGradient>
    </defs>
    <path d="M7.456 10.301l1.938 1.936c-1.184 0.968-2.309 2.22-3.378 3.763 2.93 4.229 6.28 6.273 10.109 6.273 0.997 0 1.961-0.139 2.894-0.418l2.13 2.128c-1.582 0.676-3.258 1.017-5.024 1.017-5.064 0-9.387-2.809-12.9-8.263l-0.475-0.737 0.581-0.9c1.271-1.945 2.647-3.547 4.126-4.798zM16.125 7c5.014 0 9.301 2.753 12.794 8.1l0.581 0.9-0.475 0.737c-1.601 2.485-3.37 4.421-5.3 5.792 0.283 0.72 0.544 1.463 0.782 2.229-2.219-2.226-4.433-4.445-6.644-6.656-0.472 0.39-1.077 0.625-1.738 0.625-1.508 0-2.73-1.221-2.73-2.727 0-0.66 0.235-1.265 0.625-1.737-2.389-2.385-4.748-4.736-7.078-7.053 1.138 0.365 2.225 0.775 3.261 1.232 1.842-0.958 3.818-1.442 5.921-1.442zM16.125 9.727c-0.936 0-1.844 0.122-2.724 0.369 1.74 1.049 3.299 2.261 4.676 3.637 1.79 1.789 3.292 3.872 4.504 6.248 1.247-0.966 2.43-2.243 3.552-3.837l0.101-0.145-0.101-0.145c-2.906-4.13-6.223-6.128-10.008-6.128z" fill="url(#lor-elusive-fill)"></path>
</svg>
