<svg xmlns="http://www.w3.org/2000/svg" height="35" width="35" viewBox="0 0 35 35" fill="#ca7328" class="keywordstyles__KeywordIcon-sc-1lpafv9-2 goSaP"><g><path d="M16.7 15.3L14.4 21.4 22.3 22 25.8 21.5 26.1 14.7 24.8 12.3z"/><path d="M12.7 16.4L4.6 18.3 8.9 19.9z"/><path d="M7.4 23l-4.2-.4c2.1 3.8 5.6 7.7 11.5 10.9 3.8-2.1 6.6-4.5 8.7-7l-5.4-.3L7.4 23z"/><path d="M29 9.5c-.1-1.2-.3-1.9-.3-1.9s-6 0-14-6c-8 6.1-14 6-14 6s-1 3.9.2 9l8.3-4.5L29 9.5z"/><path d="M32.2 13.9L30 14l.5 3-2.4 6.5 2.3.4c2.8-3.6 3.9-7.3 4.2-10.1l-2.4.1z"/></g></svg>