<svg xmlns="http://www.w3.org/2000/svg" height="35" width="35" viewBox="0 0 35 35">
    <defs xmlns="http://www.w3.org/2000/svg">
        <linearGradient id="lor-double-attack-fill" x1="0%" y1="0%" x2="0%" y2="100%">
            <stop offset="25%" stop-color="#db9600"/>
            <stop offset="75%" stop-color="#b45400"/>
        </linearGradient>
    </defs>
    <path d="M17.43187578392029,24.254862670898437 l2.474,2.478 l-2.808,2.813 c-0.8860000000000007,0.6540000000000007 -1.6580000000000008,0.6020000000000005 -2.317,-0.15700000000000014 s-0.7110000000000005,-1.533 -0.15700000000000014,-2.321 l2.808,-2.813 zM27.862875783920288,12.389862670898438 l3.534,0.35400000000000026 l0.35400000000000026,3.54 l-8.692,8.051 l1.588,1.5910000000000002 l-2.081,2.872 c-0.8590000000000005,-1.762 -1.812,-3.167 -2.859,-4.216 s-2.45,-2.004 -4.209,-2.864 l2.866,-2.085 l1.463,1.465 l8.037,-8.708 zM6.436875783920288,19.748862670898436 l2.474,2.478 l-2.808,2.813 c-0.8860000000000007,0.6540000000000007 -1.6580000000000008,0.6020000000000005 -2.317,-0.15700000000000014 s-0.7110000000000005,-1.533 -0.15700000000000014,-2.321 l2.808,-2.813 zM17.90187578392029,10.740862670898437 l-0.14600000000000013,4.041 l-5.681,5.06 l1.5750000000000002,1.578 l-2.081,2.872 c-0.8590000000000005,-1.762 -1.812,-3.167 -2.859,-4.216 s-2.45,-2.004 -4.209,-2.864 l2.866,-2.085 l1.45,1.453 l5.051,-5.691 l4.034,-0.14700000000000013 zM18.774875783920287,11.571862670898437 l4.971,3.44 l-2.474,2.478 l-2.497,-2.6 v-3.318 zM17.792875783920287,6.519862670898437 l9.183,5.219 l-2.474,2.478 l-6.709,-7.698 zM6.030875783920288,9.004862670898437 l5.72,2.7520000000000002 l-1.7240000000000002,1.978 l-3.996,-4.729 zM9.278875783920288,4.9998626708984375 l7.022,4.86 l-2.265,0.09500000000000014 l-4.757,-4.954 z" fill="url(#lor-double-attack-fill)"/>
</svg>
