<svg xmlns="http://www.w3.org/2000/svg" xmlns:xlink="http://www.w3.org/1999/xlink" version="1.1" width="32" height="32">
    <g fill="#f2c762">
        <path d="M23.996557489788305,27.490296977406814 c-0.23935272230417692,-3.4814941426062056 -0.4569461062170647,-6.701876224516945 -0.6745394901299527,-10.00929565999284 c0.2611120606954657,0 0.4569461062170647,0 0.6527801517386642,0 c1.5231536873902154,0.021759338391288845 2.785195314084964,-0.6527801517386642 3.176863405128162,-2.110655823955012 c0.36990875265190987,-1.4361163338250598 0.4787054446083537,-2.9810293596065645 0.5222241213909308,-4.48242370860549 c0.021759338391288845,-0.3916680910431985 -0.5657427981735091,-0.9791702276079953 -1.000929565999284,-1.1532449347383056 c-1.5013943489989265,-0.5439834597822198 -3.024548036389141,-1.0226889043905731 -4.569461062170644,-1.3273196418686164 c-1.000929565999284,-0.1958340455215994 -2.088896485563723,-0.2175933839128884 -3.0898260515630076,-0.021759338391288845 c-1.5449130257815038,0.30463073747804376 -3.0680667131717185,0.8268548588689745 -4.591220400561933,1.3055603034773269 c-0.4134274294344869,0.13055603034773278 -0.7833361820863967,0.4134274294344869 -1.0879669195644392,0.5657427981735091 C12.703460864709427,14.391175265850965 14.009021168186756,18.024984777196195 17.599312002749404,17.50276065580526 c-0.1958340455215994,3.285660097084606 -0.4134274294344869,6.549560855777924 -0.6092614749560864,10.00929565999284 c-2.480564576606921,-1.7407470713031035 -4.8305731228661095,-3.39445678904105 -7.2241003459078765,-5.069925845170286 C12.398830127231381,17.15461124154464 13.290963001274223,11.671257966939868 12.464108142405246,6.035589323596072 c5.331037905865752,-2.088896485563723 10.640316473340215,-2.023618470389857 16.080151071162412,-0.043518676782577655 c-0.8703735356515523,5.635668643343795 0.08703735356515523,11.162540594731146 2.5893612685633656,16.45005982381432 C28.783611935871843,24.117599526757054 26.455362728003937,25.749549906103706 23.996557489788305,27.490296977406814 z"/>
        <path d="M7.285385605278519,25.357881815060516 c-2.241211854302745,-1.588431702564082 -4.308349001475179,-3.024548036389141 -6.419004825430191,-4.504183046996778 c2.088896485563723,-3.93844024882327 2.763435975693675,-8.029195866385562 1.9800997936072795,-12.53337891338234 c2.698157960519809,-0.06527801517386642 5.113444521952864,-1.7407470713031035 7.985677189602983,-0.8268548588689745 c0,1.2620416266947494 0,2.5240832533894992 0,3.6120501729539383 c-1.0444482427818624,0.10879669195644415 -2.0671371471724345,0.13055603034773278 -3.0680667131717185,0.30463073747804376 c-0.9791702276079953,0.1958340455215994 -1.9365811168247018,0.5439834597822198 -2.893992006041408,0.8268548588689745 c-0.89213287404284,2.763435975693675 0.4569461062170647,4.721776430909666 2.9592700212152745,4.177792971127446 C7.655294357930428,19.33054508067352 7.481219650800117,22.224537086714932 7.285385605278519,25.357881815060516 z"/>
    </g>
</svg>
