<svg xmlns="http://www.w3.org/2000/svg" height="32" width="32" viewBox="0 0 32 32">
    <defs xmlns="http://www.w3.org/2000/svg">
        <linearGradient id="lor-quick-attack-fill" x1="0%" y1="0%" x2="0%" y2="100%">
            <stop offset="25%" stop-color="#db9600"/>
            <stop offset="75%" stop-color="#b45400"/>
        </linearGradient>
    </defs>
    <path d="M9.297,22.321874889850616 l2.672,2.665 l-3.032,3.025 c-0.9570000000000005,0.7030000000000005 -1.791,0.6470000000000007 -2.502,-0.16900000000000023 s-0.7680000000000007,-1.6480000000000001 -0.17,-2.496 l3.032,-3.025 zM23.801,6.331874889850618 l3.817,0.3810000000000003 l0.38200000000000034,3.807 l-12.634,11.882 l1.722,1.718 l-2.248,3.088 c-0.928,-1.895 -1.957,-3.406 -3.088,-4.534 s-2.646,-2.1550000000000002 -4.546,-3.08 l3.096,-2.242 l1.5870000000000002,1.5830000000000002 l11.912,-12.602 zM4,3.4998748898506165 l12.386,8.343 l-2.672,2.665 l-9.714,-11.008 zM9.957,4.326874889850616 l9.918,3.998 l-2.672,2.665 l-7.247,-6.663 z" fill="url(#lor-quick-attack-fill)"/>
</svg>
