<svg version="1.1" xmlns="http://www.w3.org/2000/svg" xmlns:xlink="http://www.w3.org/1999/xlink" x="0px" y="0px" viewBox="0 0 128 128" xml:space="preserve">
    <linearGradient id="lor-attune-fill" x1="0%" y1="0%" x2="0%" y2="100%">
        <stop offset="25%" stop-color="#9bf7fa"/>
        <stop offset="75%" stop-color="#20b0e5"/>
    </linearGradient>
    <path fill="url(#lor-attune-fill)" d="M121.6,61.2c-5.3-2.5-11.5-3.3-17.1-4.8c-2-8.1-5.1-15.4-11.3-21.2C87.4,29,80.1,25.9,72,23.8
	c-1.5-5.6-2.4-11.7-4.8-17c-1.6-2.6-3.3-2.3-5-0.1c-2.5,5.4-3.3,11.6-5,17.3c-4,1.1-7.9,2.8-11.9,4C35.5,23.6,26.8,16.6,17,11.9
	c-2-0.9-3.5-0.5-4.7,1.4c0.3,3.1,1.8,5.4,3.3,8c4.7,7.7,9.4,15.3,13.9,23.1c-1.5,3.9-2.8,7.8-3.9,11.8c-5.9,1.6-12.3,2.5-17.9,5
	c-2.2,1.6-2.5,3.6,0.1,5c5.6,2.5,12,3.3,17.9,5c3.4,16.2,15.2,27.9,31.4,31.4c1.6,5.9,2.5,12.4,5.1,18c1.4,2.5,3.5,2.1,4.9,0
	c2.6-5.6,3.4-12,5.1-17.9c4-1.1,7.8-2.3,11.7-3.9c8.5,4.8,16.8,10.1,25.2,15.1c2.9,1.3,5.7,3.8,8,0.2c-0.2-2.2-1.1-4.1-2.2-6
	C110,99.7,104.7,91.5,100,83c1.7-3.9,3.2-7.8,4.3-11.8c5.7-1.7,11.9-2.5,17.3-5C124,64.8,123.8,62.6,121.6,61.2z M65.5,86.8
	c-12.4,0.5-23.5-9.8-23.9-22.3c-0.7-10.7,6.7-20.7,17-23.6c13.5-3.8,27.5,5.1,29.5,19C90.4,73.5,79.3,86.7,65.5,86.8z"/>
</svg>
