<svg xmlns="http://www.w3.org/2000/svg" height="32" width="32" viewBox="0 0 32 32">
    <defs xmlns="http://www.w3.org/2000/svg">
        <linearGradient id="lor-stun-fill" x1="0%" y1="0%" x2="0%" y2="100%">
            <stop offset="25%" stop-color="#ff7cff"/>
            <stop offset="75%" stop-color="#941ee2"/>
        </linearGradient>
    </defs>
    <path d="M16.816 15.569c-0.275 4.15-4.312 3.527-5.761 1.007-1.189-2.067-0.52-6.485 3.757-7.051 9.518-1.259 11.271 14.353 0.25 15.36s-12.523-8.813-10.019-14.857 13.776-10.324 20.538-1.511c6.763 8.813-0.25 21.152-10.77 19.893 6.262-1.007 14.527-9.82 8.015-18.13-3.564-4.548-9.331-4.343-12.774-1.511-2.847 2.342-3.516 7.77-1.753 10.576 3.006 4.784 10.77 3.022 11.271-2.014s-4.258-6.295-6.011-4.029c-1.753 2.266 1.252 5.288 3.256 2.266z" fill="url(#lor-stun-fill)"></path>
</svg>
