<svg xmlns="http://www.w3.org/2000/svg" height="32" width="32" viewBox="0 0 32 32">
    <defs xmlns="http://www.w3.org/2000/svg">
        <linearGradient id="lor-frostbite-fill" x1="0%" y1="0%" x2="0%" y2="100%">
            <stop offset="25%" stop-color="#e369e9"/>
            <stop offset="75%" stop-color="#7815ba"/>
        </linearGradient>
    </defs>
    <path d="M16 17.25l2.5 3-2.5 8.25-2.5-8.25 2.5-3zM12.798 19.202l-1.768 4.596-3.578 0.75 0.75-3.578 4.596-1.768zM19.077 19.202l4.596 1.768 0.75 3.578-3.578-0.75-1.768-4.596zM20.25 13.5l8.25 2.5-8.25 2.5-3-2.5 3-2.5zM11.75 13.5l3 2.5-3 2.5-8.25-2.5 8.25-2.5zM16 3.5l2.5 8.25-2.5 3-2.5-3 2.5-8.25zM7.452 7.702l3.578 0.75 1.768 4.596-4.596-1.768-0.75-3.578zM24.423 7.702l-0.75 3.578-4.596 1.768 1.768-4.596 3.578-0.75z" fill="url(#lor-frostbite-fill)"></path>
</svg>
