<svg xmlns="http://www.w3.org/2000/svg" height="32" width="32" viewBox="0 0 32 32">
    <defs xmlns="http://www.w3.org/2000/svg">
        <linearGradient id="lor-enlightened-fill" x1="0%" y1="0%" x2="0%" y2="100%">
            <stop offset="25%" stop-color="#3dddca"/>
            <stop offset="75%" stop-color="#41d778"/>
        </linearGradient>
    </defs>
    <path d="M19.335 11.943c1.463 0.801 2.775 2.074 4.369 4.148 0.005-0.056 0.010-0.113 0.016-0.171 0.309-3.338 0.912-9.84-9.249-13.17 0.113 0.146 0.508 0.575 0.958 1.064 0.75 0.815 1.651 1.795 1.651 1.901-0.903-0.529-5.419-1.906-9.333 0.847s-5.189 6.67-4.616 11.329c0.455 3.7 3.289 6.799 6.95 8.289-2.584-1.464-4.341-4.342-4.341-7.654 0-4.795 3.684-8.682 8.229-8.682 2.050 0 3.925 0.791 5.366 2.099z" fill="url(#lor-enlightened-fill)"/>
    <path d="M12.665 20.057c-1.463-0.801-2.775-2.074-4.369-4.148-0.005 0.056-0.010 0.113-0.016 0.171-0.309 3.338-0.912 9.839 9.249 13.17-0.113-0.145-0.508-0.575-0.958-1.064-0.75-0.815-1.651-1.795-1.651-1.901 0.903 0.529 5.419 1.906 9.333-0.847s5.189-6.67 4.616-11.329c-0.454-3.7-3.289-6.799-6.95-8.289 2.584 1.464 4.341 4.342 4.341 7.654 0 4.795-3.684 8.682-8.229 8.682-2.050 0-3.925-0.791-5.366-2.099z" fill="url(#lor-enlightened-fill)"/>
</svg>
